<svg xmlns="http://www.w3.org/2000/svg" width="307" height="450" viewBox="0 0 307 450"><path opacity=".1" fill="#008FC9" d="M177.547 75.6L25.462 130.838l10.185 72.586-29.212 192.64L137.46 262.257l77.705 53.37" style="animation: none;"></path><path opacity=".5" fill="#008FC9" d="M132.996 135.73l19.064 2.838 8.563 7.564"></path><path opacity=".5" fill="#BBBBBA" d="M47.06 435.273l104.25 1.824 96.096-17.244-86.677-2.926-61.774 8.7-23.715 2.14" style="animation: none;"></path><path fill="#009CDE" d="M109.953 114.673l-8.02-20.003-.435-17.846 20.556-11.97 19.814 16.866-4.787 20.784-9.822 14.484"></path><path opacity=".5" fill="#008FC9" d="M113.663 115.17l-9.9-21.515-.433-17.846 20.555-11.97 19.813 16.866-3.984 22.173-12.456 14.108"></path><path fill="#0088C1" d="M108.677 121.75l1.008-5.3 17.432 2.347 1.81 3.22-1.205 3.82M105.694 125.838l22.028 1.542-9.657 11.517M127.722 126.56l-21.324-1.36 2.204-2.782"></path><path opacity=".5" fill="#008FC9" d="M81.04 53.903l3.547-1.1-18.39-16.64M121 36.508l3.16 1.953L121 7.39M158.492 56.746l-3.334-1.637 28.513-16.705"></path><path opacity=".5" fill="#008FC9" d="M81.845 53.903l3.548-1.1L67 36.162M121 36.508l3.16 1.953L121 7.39M159.297 56.746l-3.334-1.637 28.512-16.705"></path><path fill="#009CDE" d="M226.87 144.676l-3.513-17.567-9.828 17.048 7.97 5.868M229.137 163.017l-8.32 54.25 20.503 12.728 41.842-28.613-47.808-42.51" style="animation: none;"></path><path d="M248.375 192.73c5.004.287 7.075.89 8.408 3.915 1.572 3.567.523 7.572-4.164 9.64l-.817.36.793 3.19-.765 3.97-1.715-6.56c-3.73.885-6.475-.18-8.088-3.84l-.172-.393 2.834-3.387 1.075 2.095c.787 1.785 2.104 2.396 3.533 2.198l-1.69-6.95c-4.265.004-6.7-1.017-8.034-4.04-1.32-2.995-.866-6.88 4.002-9.028l.756-.333-.57-2.277.928-5.2 1.354 6.94c3.837-1.296 7.212 1.726 8.68 5.052l-4.44.7c-1.1-2.405-1.98-2.597-3.436-2.46l1.527 6.41zm-3.253-5.897l-.483.214c-1.694.747-2.42 2.222-1.655 3.945.785 1.784 2.148 1.762 3.563 1.86l-1.426-6.02zm5.89 16.547c1.27-.56 3.396-1.967 2.156-4.78-.52-1.178-1.79-1.596-3.734-1.748l1.578 6.528zM108.987 98.95l10.81 6.682 12.03-2.643-13.842 6.935" fill="#FFF" style="animation: none;"></path><path fill="#009CDE" d="M115.347 137.804l-10.716-10.842-2.277 2.818 4.02 17.02M119.77 138.495l11.118 8.306.94-13.145-2.146-6.693M118.804 140.688l.914-1.206 12.083 9.153 1.196-12.905 27.627 10.402-2.22 34.34-4.417 21.994-6.666 13.777 4.135 22.545-20.5 2.575-6.435.69 1.994-59.55" style="animation: none;"></path><path fill="#009CDE" d="M118.065 140.79l-2.01-2.314-10.087 10.2-4.666-17.84-33.228 7.826 6.423 29.994-3.75 13.848 12.122 28.063-.912 17.32 4.985-4.04 10.086-1.404 4.47 4.234-6.94.76L93.325 229h3.42l9.218 3.166 5.158 6.73-.792.86 11.718 1.912 2.457-59.155M213.53 152.39l-.455-3.557 1.743-2.747 3.137 2.076-.316 1.45 3.178.85" style="animation: none;"></path><path fill="#0088C1" d="M229.325 159.554l-.475-.84-1.392 1.123-1.51-2.81 1.368-1.16-.193-.582-1.477 1.34-1.44-2.95 1.405-1.34-.262-.57-1.612 1.406-1.26-2.167-9.535 2.74-2.463 5.67 7.5 8.5 10.93-5.503-.844-1.896"></path><path fill="#009CDE" d="M233.938 142.22l-5.776 2.46-5.38 5.56.095.167.97 1.7 1.036-.882 4.814-4.1 5.79-2.178"></path><path fill="#009CDE" d="M236.477 145.274l-6.573 2.422-4.347 4.717-.95 1.03 1.217 2.136 1.026-.882 4.912-4.22 6.66-1.776"></path><path fill="#009CDE" d="M237.95 149.526l-5.757 1.8-4.763 4.4-.998.92 1.045 1.83 1.1-.725 5.687-3.748 5.377-1.623"></path><g fill="#009CDE"><path d="M238.12 153.537l-3.724.998-4.912 4.822 1.006 1.776-1.165.587.085.15 4.973-3.393 5.258-2.333"></path><path d="M229.484 159.357l-.964.95.805 1.413 1.165-.587"></path></g><path fill="#0088C1" d="M75.827 242.064l6.028-12.325 13.314.258-8.183 18.864" style="animation: none;"></path><path fill="#009CDE" d="M82.87 228.52l9.103.17 2.22-2.144 5.5-.442-2.575-2.59-9.904 1.257M80 246.135l6.55 3.952 7.53 2.542 7.28.927 1.993-4.045 2.328.252 1.97-2.516 9.633 5.053 3.42 1.34 2.19 26.548-8.216 24.738-3.36 49.485-21.86-3.844L80 277.15M90.21 365.265l-.49-12.96 21.22 3.675.376 2.99M90.764 367.688l20.213-7.243L114 373.722v43.494l-5.086-2.612-8.673 1.808" style="animation: none;"></path><path fill="#009CDE" d="M108.783 416.213l-8.373 1.874-5.425 12.86 10.45 10.943 16.88-13.755-7.637-9.646"></path><path fill="#0088C1" d="M110.07 240.208l-.856.772-2.11-.772 2.193 2.647-2.194 2.325-7.744-4.67-6.036-1.078 5.684 3.21 18.282 8.286 1.31-8.287M119.674 242.64l3.555.803 3.55.134-.24 7.847-4.787.877-3.688-1.077M127 243.376v7.912l24.196-4.826-.624-5.482"></path><path fill="#009CDE" d="M122.333 253.592l10.115-1.29 10.158-2.402 9.454-2.187 8.808 36.475 3.43 24.615-20.312 24.215-22.96-41.43 3.477-10.8M143.993 335.17l21.225-24.357 4.22 16.476-20.665 9.488M169.438 328.998l5.525 79.778-5.525 7.437-8.138-4.823-14.135-55.302 2.55-18.236" style="animation: none;"></path><path fill="#009CDE" d="M160.896 412.595l9.406 5.202 6.47-9.02 6.533 5.727 23.61 7.635-1.507 3.695-20.297 2.434-24.958-2.666"></path><path fill="#0088C1" d="M122.333 253.592l9.142-1.167 8.24 25.4-12.007 17.515 23.255 29.36-6.977 8.318-22.96-41.43 3.61-11.132M151 326.45v5.03l3.66 2.445-6.05 2.853-5.028-1.607M155.003 335.482l-.99 23.69 4.27 28.564L164 398.73v5.365l10.8 4.68-5.445 7.438-8.097-4.823-14.114-55.302 2.56-18.236M176.794 408.742l-1.83 11.707 15.784 3.55h15.42l-.76 1.83-20.297 2.437-24.958-2.663.744-13.01 9.406 5.203M80 246.135l6.55 3.952 7.53 2.542-7.007 35.993 6.425 44.395 1.048 18.416-5.095-.868L80 277.15M94.56 353.144l.425 5.64-1.643 5.547-3.13.935-.492-12.96M93.472 366.732l7.044 22.1 2.19 27.11-2.304.47-9.638-48.724M102.706 417.574l-2.19 12.268 6.286 3.22 15.512-4.927-16.88 13.755-10.873-11.445 5.85-12.358" style="animation: none;"></path><path fill="#009CDE" d="M289.566 193l7.88 12.305.303.637-.432.345-8.726 5.216 8.174-5.984-.125.725-9.02-11.463-1.85-1.782" style="animation: none;"></path><path fill="#009CDE" d="M297.19 199.294l5.248 5.752.236.523-.388.28-7.056 5.094 6.225-6.08-.15.8M220.384 225.486l-6.166-4.414-.468-.334.195-.437 3.557-7.94-2.342 8.38-.27-.77 6.75 3.454.667 3.437M69.263 182.504l3.885-14.135-6.43-29.473-18.854 29.64-4.378 12.407L58.23 195.01M57.117 196.27l-14.313-13.396-6.23 17.647 38.445 40.746 5.9-12.745" style="animation: none;"></path><path fill="#0088C1" d="M53.69 191.16l2.42-21.93 11.693-24.878-1.085-4.975-18.854 29.64-4.378 12.407M53.084 192.976l-9.598 6.226 31.533 42.544L36.573 201l6.23-17.646M229.068 163.922l-.62 45.862 11.665 15.69 43.05-24.092-41.843 28.613-20.502-12.727M218.39 135.73l5.815 11.434-2.705 2.862-7.97-5.868" style="animation: none;"></path><path fill="#009CDE" d="M94.303 251.123l6.843.98.938-1.946-6.766-1.807-5.954-3.597-1.594 3.765M96.287 247.47l9.28 1.282 1.273-1.943-9.11-3.685-6.113-3.693-1.607 3.793M99.693 240.007l7.147 4.257 1.475-1.475-4.908-5.27-9.634-3.19-1.62 3.83M102.728 235.833l6.084 4.375 1.51-1.388-4.905-6.123-9.605-3.18-1.62 3.825"></path><path fill="#0088C1" d="M85.497 135.04l-8.466 10.714 7.265 21.68-3.376 15.92 19.598 16.42-8.364 23.83-5.21.725-4.986 4.037.91-17.32-12.12-28.063 3.75-13.847-6.424-29.994" style="animation: none;"></path><path fill="#009CDE" d="M216.035 168.463l-6.467-8.265-21.793 19.215L174 191.507v23.93M171.967 193h.025l-10.17-45.472-2.136 34-4.16 21.487L172 217.273v.025"></path><path d="M174.186 215.438l-.01.012.01-.012z" fill="#9A9A9A"></path><path fill="#0088C1" d="M161.835 148.253l-2.144 33.877-3.872 21.428 16.758 14.22-8.38-19.38M174 215.918l42.035-46.975-28.887 26.547L174 191.987" style="animation: none;"></path><path opacity=".5" fill="#008FC9" d="M161.835 147.773l12.342 41.12-2.16 4.598"></path><path opacity=".1" fill="#BBBBBA" d="M57.117 196.27l17.902 20.152 5.9 12.1-11.902-14.715"></path><path d="M152.06 247.713l13.478 35.693-1.358 24.532s-8.297-33.384-8.297-33.987c0-.602-3.823-26.237-3.823-26.237zM165.218 310.813l6.352 15.638-2.132.84M169.357 330h2.213l3.393 79.71M114.52 304.926l-1.118 47.38L111 354.41v-37.413M110.977 360.445l5.8 11.265L114 417.216v-43.494" opacity=".5" fill="#008FC9" style="animation: none;"></path><path opacity=".5" fill="#BBBBBA" d="M176.794 408.742l13.483 6.416 16.637 6.98-27.297-6.697"></path></svg>